<!DOCTYPE svg PUBLIC "-//W3C//DTD SVG 20010904//EN" "http://www.w3.org/TR/2001/REC-SVG-20010904/DTD/svg10.dtd">
<svg version="1.0" xmlns="http://www.w3.org/2000/svg" width="200px" height="50px" viewBox="0 0 2000 500" preserveAspectRatio="xMidYMid meet">
<g id="layer101" fill="#0f0104" stroke="none">
 <path d="M40 240 l0 -120 40 0 40 0 0 45 c0 25 5 45 10 45 6 0 10 -20 10 -45 l0 -45 40 0 40 0 0 120 0 120 -40 0 -40 0 0 -40 c0 -22 -4 -40 -10 -40 -5 0 -10 18 -10 40 l0 40 -40 0 -40 0 0 -120z"/>
 <path d="M273 336 c-22 -19 -28 -32 -28 -66 0 -55 37 -90 95 -90 58 0 95 35 95 90 0 55 -37 90 -95 90 -27 0 -48 -8 -67 -24z m83 -57 c10 -17 -13 -36 -27 -22 -12 12 -4 33 11 33 5 0 12 -5 16 -11z"/>
 <path d="M485 335 c-23 -22 -25 -32 -25 -120 l0 -95 35 0 c33 0 35 2 35 35 0 24 5 35 15 35 10 0 15 11 15 35 0 24 -5 35 -15 35 -8 0 -15 5 -15 10 0 6 7 13 15 16 9 4 15 19 15 40 0 30 -3 34 -25 34 -14 0 -37 -11 -50 -25z"/>
 <path d="M605 335 c-19 -18 -25 -35 -25 -65 0 -111 160 -125 186 -17 l7 29 -61 -4 c-46 -2 -58 0 -50 9 5 6 15 10 22 7 15 -6 50 42 41 56 -3 6 -26 10 -51 10 -34 0 -51 -6 -69 -25z m79 -97 c-3 -5 -12 -4 -20 3 -19 16 -18 18 6 12 11 -3 17 -9 14 -15z"/>
 <path d="M780 240 l0 -120 40 0 40 0 0 120 0 120 -40 0 -40 0 0 -120z"/>
 <path d="M880 319 c0 -24 4 -38 10 -34 21 13 30 -6 15 -35 -34 -65 1 -130 70 -130 33 0 35 2 35 31 0 18 -7 37 -15 43 -14 10 -14 15 0 49 27 64 -8 117 -77 117 -38 0 -38 0 -38 -41z"/>
 <path d="M1055 335 c-19 -18 -25 -35 -25 -65 0 -55 34 -90 87 -90 47 0 79 21 97 63 13 28 14 29 15 9 3 -67 112 -99 161 -47 19 20 25 40 28 90 l4 65 -69 0 c-76 0 -123 -23 -123 -60 0 -16 -10 -19 -64 -22 -49 -2 -62 0 -54 9 5 6 15 10 22 7 15 -6 50 42 41 56 -3 6 -26 10 -51 10 -34 0 -51 -6 -69 -25z m285 -59 c0 -8 -5 -18 -11 -22 -14 -8 -33 11 -25 25 10 16 36 13 36 -3z m-206 -38 c-3 -5 -12 -4 -20 3 -19 16 -18 18 6 12 11 -3 17 -9 14 -15z"/>
 <path d="M1452 288 c6 -81 26 -108 79 -108 24 0 29 4 29 25 l0 24 25 -24 c46 -46 155 -20 155 37 0 19 -5 20 -50 16 -51 -5 -71 5 -51 25 8 8 14 8 23 -1 7 -7 29 -12 51 -12 35 0 38 2 32 23 -28 96 -185 85 -185 -13 0 -54 -25 -29 -28 28 l-3 52 -41 0 -41 0 5 -72z"/>
 <path d="M1770 240 l0 -120 40 0 c38 0 40 2 40 30 0 27 3 30 29 30 44 0 61 31 61 112 l0 68 -40 0 -39 0 -4 -57 -3 -58 -2 58 -2 57 -40 0 -40 0 0 -120z"/>
 </g>
<g id="layer102" fill="#fa072f" stroke="none">
 <path d="M40 240 l0 -120 40 0 40 0 0 45 c0 25 5 45 10 45 6 0 10 -20 10 -45 l0 -45 40 0 40 0 0 120 0 120 -40 0 -40 0 0 -40 c0 -22 -4 -40 -10 -40 -5 0 -10 18 -10 40 l0 40 -40 0 -40 0 0 -120z"/>
 <path d="M273 336 c-22 -19 -28 -32 -28 -66 0 -55 37 -90 95 -90 58 0 95 35 95 90 0 55 -37 90 -95 90 -27 0 -48 -8 -67 -24z m83 -57 c10 -17 -13 -36 -27 -22 -12 12 -4 33 11 33 5 0 12 -5 16 -11z"/>
 <path d="M485 335 c-23 -22 -25 -32 -25 -120 l0 -95 35 0 c33 0 35 2 35 35 0 24 5 35 15 35 10 0 15 11 15 35 0 24 -5 35 -15 35 -8 0 -15 5 -15 10 0 6 7 13 15 16 9 4 15 19 15 40 0 30 -3 34 -25 34 -14 0 -37 -11 -50 -25z"/>
 <path d="M605 335 c-19 -18 -25 -35 -25 -65 0 -111 160 -125 186 -17 l7 29 -61 -4 c-46 -2 -58 0 -50 9 5 6 15 10 22 7 15 -6 50 42 41 56 -3 6 -26 10 -51 10 -34 0 -51 -6 -69 -25z m79 -97 c-3 -5 -12 -4 -20 3 -19 16 -18 18 6 12 11 -3 17 -9 14 -15z"/>
 <path d="M780 240 l0 -120 40 0 40 0 0 120 0 120 -40 0 -40 0 0 -120z"/>
 </g>

</svg>
